<svg id="svg" version="1.1" viewBox="0 0 300 111.5511899092176" width="300" height="111.5511899092176" xmlns="http://www.w3.org/2000/svg"><g xmlns="http://www.w3.org/2000/svg" id="svg" fill="#000000" fill-rule="evenodd" stroke="none" stroke-width="1" stroke-linecap="butt" stroke-linejoin="miter" stroke-miterlimit="10" stroke-dasharray="" stroke-dashoffset="0" font-family="none" font-weight="none" font-size="none" text-anchor="none" style="mix-blend-mode: normal"><path d="M191.71344,0.43998c0,1.39299 -0.9735,2.69113 -2.5513,3.40255l-1.63954,0.73963l1.17548,0.37697c1.64035,0.52621 2.56029,1.42284 2.96834,2.89474l0.34917,1.2597l0.49063,-1.22577c0.69834,-1.74502 1.55817,-2.57092 3.00595,-2.88902l1.26093,-0.2768l-1.81412,-0.87088c-1.33085,-0.63823 -1.92737,-1.21963 -2.2377,-2.17964c-0.49922,-1.54468 -1.00784,-2.16615 -1.00784,-1.23149M10.17877,10.6697c-7.04224,1.61991 -10.69992,6.51153 -9.43285,12.61462c0.92607,4.4615 3.18422,6.38683 10.53065,8.97983c4.14831,1.46413 5.38716,2.20009 5.87862,3.49332c0.47592,1.25112 0.08668,2.15838 -1.12314,2.61835c-1.43306,0.54501 -3.239,-0.37493 -5.64884,-2.87675c-2.44418,-2.5374 -3.7509,-3.2848 -5.74451,-3.2848c-1.91593,0 -4.08044,2.03409 -4.49012,4.21986c-0.93629,4.98893 2.57501,8.28967 9.90304,9.30938c7.65635,1.0659 13.70423,-1.18366 15.90841,-5.91746c1.7303,-3.71615 1.18202,-8.11836 -1.36192,-10.93419c-1.89099,-2.09296 -3.84739,-3.21284 -8.8997,-5.09319c-5.89701,-2.19436 -6.97845,-3.11512 -5.93954,-5.05639c1.05323,-1.96744 3.68221,-1.23681 7.44987,2.07007c1.45596,1.27769 2.35832,1.73398 3.73577,1.88935c1.63504,0.1844 1.96908,0.06501 3.34613,-1.19756c1.28137,-1.17425 1.56063,-1.7303 1.71845,-3.42095c0.15332,-1.64526 0.0094,-2.28186 -0.77806,-3.44016c-1.14072,-1.67879 -3.13556,-3.10285 -5.19132,-3.70674c-2.36118,-0.69343 -7.41267,-0.82999 -9.86093,-0.26658M65.34732,10.54827c-2.46789,0.41786 -5.7486,2.11218 -7.02384,3.62783c-0.91503,1.08716 -1.64567,2.45644 -3.08118,5.77231l-0.44239,1.02215l-0.02739,-1.25561c-0.01554,-0.69057 -0.53397,-2.25446 -1.15217,-3.47533c-0.87864,-1.73398 -1.59824,-2.50183 -3.29052,-3.51008c-2.91396,-1.73562 -5.8962,-2.18496 -14.49906,-2.18496c-8.03986,0 -8.4798,0.13901 -8.4798,2.68213c0,0.76866 0.40886,2.82524 0.9089,4.57067c0.78134,2.72834 0.90972,4.17612 0.91749,10.32826c0.00777,6.23964 -0.10876,7.55086 -0.9089,10.24771c-0.97432,3.28439 -1.15136,5.51146 -0.51803,6.51562c0.59816,0.94856 10.70196,1.13868 12.0925,0.22774c1.26461,-0.82835 1.25929,-1.541 -0.05111,-6.97886c-0.57813,-2.39961 -0.96287,-4.59397 -0.85452,-4.87568c0.11898,-0.31114 1.37705,-0.6137 3.19771,-0.76948c4.46436,-0.38147 7.90902,-1.68901 10.02488,-3.80528c0.97186,-0.97186 1.78918,-2.09378 1.81576,-2.49324c0.02658,-0.39946 0.28825,1.57412 0.5814,4.38586c0.67299,6.4592 1.69637,9.3151 4.25666,11.87498c2.03491,2.03491 4.29223,3.01209 8.05989,3.48923c2.53413,0.32096 7.05532,-0.40109 9.09023,-1.45187c1.75892,-0.90849 4.19451,-3.39069 5.1075,-5.20481c2.55089,-5.0703 2.49896,-17.43878 -0.09445,-22.46451c-0.94079,-1.82352 -3.39928,-4.2767 -5.18396,-5.17333c-2.55375,-1.2826 -6.75767,-1.72621 -10.4456,-1.10147M174.69212,10.71917c-5.78131,1.31899 -8.92464,4.44678 -9.4304,9.38379c-0.56259,5.49306 2.38121,9.21288 9.27094,11.71594c1.2413,0.45138 3.008,1.09616 3.92589,1.43306c2.2884,0.84021 3.44221,2.00833 3.44221,3.48596c0,0.94815 -0.24491,1.31367 -1.09739,1.6379c-1.5917,0.60512 -3.0681,-0.14842 -5.767,-2.94381c-2.86571,-2.96752 -4.85237,-3.87151 -6.74091,-3.06687c-0.72491,0.30869 -1.77814,1.05977 -2.34033,1.66938c-0.88355,0.95755 -1.02215,1.48826 -1.02215,3.9169c0,2.72425 0.04947,2.8604 1.62891,4.47786c3.79792,3.8895 14.30526,4.80331 19.95941,1.73644c1.94986,-1.05773 4.34498,-3.76398 4.40671,-4.97912c0.01758,-0.34917 0.22406,-0.083 0.45833,0.59162c1.19674,3.44507 5.20767,5.60141 11.4514,6.15623c9.57187,0.85043 16.26207,-4.31554 15.27058,-11.79117c-0.72082,-5.43214 -3.17154,-7.45682 -13.49817,-11.14925c-3.60616,-1.28955 -4.94846,-3.56732 -2.89515,-4.91288c1.40321,-0.91953 3.07791,-0.29152 6.08018,2.2794c1.31163,1.12355 2.83096,2.15429 3.37597,2.29126c3.83921,0.96369 7.21887,-2.97488 5.92277,-6.90241c-1.32798,-4.02402 -7.71073,-6.35576 -14.38253,-5.25388c-7.38773,1.22004 -10.77474,4.5768 -10.77474,10.67947c0,5.96775 2.15388,8.07788 11.87458,11.63539c3.48105,1.2736 4.66552,2.27082 4.66552,3.92753c0,0.94815 -0.24491,1.31367 -1.09739,1.6379c-1.5733,0.59816 -3.07096,-0.14719 -5.58219,-2.77781c-1.16076,-1.21636 -2.60772,-2.47525 -3.21488,-2.79784c-2.104,-1.1166 -4.61728,-0.61738 -6.10185,1.21187c-0.69752,0.85902 -0.69834,0.85861 -0.96655,-0.36675c-0.54501,-2.48833 -1.63545,-4.39935 -3.39519,-5.94812c-1.66121,-1.46209 -2.99369,-2.08111 -10.08458,-4.68392c-3.6172,-1.32757 -4.94478,-3.5894 -2.89515,-4.9321c1.38277,-0.90604 3.2803,-0.24327 5.82751,2.03572c1.07612,0.96287 2.35832,1.96254 2.84936,2.22176c3.89441,2.05698 8.26269,-2.43559 6.60475,-6.79201c-0.66563,-1.74911 -3.33877,-3.95083 -5.56584,-4.58539c-2.60036,-0.74004 -7.47032,-0.85616 -10.16267,-0.24205M84.18277,11.36231c-0.71837,0.71837 -0.81772,1.36274 -0.81772,5.30089c0,3.95492 0.08995,4.53101 0.76171,4.89081c0.56791,0.30378 1.16689,0.19176 2.35096,-0.43994c2.9757,-1.58679 3.63315,-1.89957 4.59561,-2.187l0.96164,-0.28702l-0.18767,8.52477c-0.157,7.1514 -0.32872,9.0015 -1.06386,11.4837c-0.48205,1.62768 -0.87374,3.55955 -0.87047,4.29305c0.01186,2.49896 0.17499,2.5607 6.74009,2.5607c6.52339,0 6.73436,-0.07687 6.73314,-2.45317c-0.00041,-0.67462 -0.38515,-2.60649 -0.85493,-4.29305c-1.15708,-4.15445 -1.66693,-20.03423 -0.64314,-20.03423c0.34385,0 1.85828,0.65418 3.36534,1.4535c1.63708,0.86842 3.17277,1.40321 3.81591,1.3288l1.07612,-0.1247l0.1153,-4.58661c0.16968,-6.73273 1.2086,-6.24823 -13.40331,-6.24823c-11.31198,0 -11.89461,0.03762 -12.67472,0.81772M111.98538,11.36231c-1.00948,1.00948 -1.00866,1.47681 0.01022,5.3152c1.86809,7.03774 1.85828,15.74936 -0.02535,22.33653c-0.96982,3.3911 -1.01766,5.19255 -0.16027,6.05034c0.95837,0.95796 22.84025,0.96328 24.20708,0.00572c0.85575,-0.59898 0.9089,-0.9318 0.9089,-5.67378c0,-3.95942 -0.13002,-5.14553 -0.60798,-5.54212c-0.91135,-0.75639 -2.32561,-0.21833 -4.86709,1.85214c-2.72874,2.22298 -4.56167,3.0497 -6.7593,3.0497c-1.54795,0 -1.64362,-0.074 -1.90611,-1.47272c-0.1521,-0.80996 -0.17336,-4.81149 -0.04784,-8.89275c0.19135,-6.22206 0.39782,-8.04354 1.27974,-11.28254c1.26379,-4.64222 1.26665,-4.71295 0.23387,-5.74574c-0.73391,-0.73391 -1.36274,-0.81772 -6.13293,-0.81772c-4.77019,0 -5.39902,0.08382 -6.13293,0.81772M139.06144,11.18119c-1.1117,0.77806 -1.12314,1.57003 -0.08095,5.49633c1.87095,7.04796 1.86359,15.14792 -0.02003,22.52624c-1.73562,6.79774 -2.28145,6.50295 12.03689,6.50295c10.67988,0 11.61168,-0.05683 12.23683,-0.74781c0.55033,-0.60798 0.67667,-1.66161 0.67667,-5.64229c0,-6.86111 -0.52171,-7.21151 -5.41701,-3.63642c-3.51826,2.56929 -4.64549,3.07587 -6.84312,3.07587c-1.42938,0 -1.60192,-0.11775 -1.85378,-1.2642c-0.15291,-0.69547 -0.15905,-2.05658 -0.0139,-3.02476c0.37084,-2.47116 1.51524,-2.91069 5.73265,-2.20213c3.86456,0.64927 3.88296,0.62924 3.89155,-4.25462c0.00572,-3.31383 -0.06215,-3.61597 -0.88069,-3.91894c-0.48818,-0.18031 -1.6379,-0.18235 -2.55539,-0.0045c-4.57803,0.88764 -5.97265,0.2678 -6.26581,-2.78353c-0.26208,-2.72915 0.33527,-3.80814 2.1085,-3.80814c1.90898,0 3.74926,0.85329 6.57695,3.04888c4.78818,3.71819 5.52004,3.22919 5.52004,-3.68916c0,-4.74198 -0.05315,-5.07479 -0.9089,-5.67378c-1.35538,-0.94938 -22.58512,-0.94938 -23.9405,0M219.59169,10.82425c-1.2736,0.50944 -1.32471,2.14325 -0.19912,6.39092c0.97064,3.6634 1.10393,4.92679 1.10761,10.50162c0.00327,5.60304 -0.1292,6.8652 -1.14604,10.89453c-1.02461,4.05959 -1.08921,4.68433 -0.59081,5.72407l0.55891,1.16689l11.66278,0.10835c9.55837,0.08872 11.8063,0.00368 12.4572,-0.47224c0.68648,-0.50208 0.81159,-1.18366 0.92157,-5.01469c0.20239,-7.05369 -1.07081,-8.05008 -5.66846,-4.4382c-1.30999,1.02911 -3.02762,2.14121 -3.81673,2.47116c-1.5917,0.66481 -4.15158,0.79932 -4.49952,0.23632c-0.12348,-0.19952 -0.23632,-4.01748 -0.25063,-8.48388c-0.02412,-7.42125 0.06337,-8.47203 1.01807,-12.20003c1.80962,-7.06963 1.72294,-7.17757 -5.73429,-7.13219c-2.90537,0.01758 -5.52495,0.1292 -5.82056,0.24736M246.60315,10.96612c-1.59783,0.64232 -1.19388,2.35995 1.28669,5.47262c1.21391,1.52301 3.90668,5.25715 5.98451,8.29785l3.77788,5.52822l-0.24818,2.93645c-0.13656,1.615 -0.64028,4.20514 -1.11905,5.75596c-0.96614,3.12779 -1.11374,5.361 -0.40191,6.07487c0.28988,0.2907 2.49855,0.52171 5.78662,0.60552c7.8988,0.20034 8.13144,-0.06296 6.29647,-7.12564c-0.56219,-2.1637 -1.02215,-4.9415 -1.02215,-6.17259c0,-2.14898 0.14842,-2.45562 3.72187,-7.68497c2.04676,-2.99532 4.71459,-6.69266 5.9285,-8.21567c2.55334,-3.20425 2.89679,-4.83438 1.1579,-5.49551c-1.35865,-0.51639 -8.18664,-0.51762 -9.15115,-0.00123c-0.51639,0.27598 -0.82958,1.09698 -1.02951,2.69563c-0.32177,2.57583 -2.95852,8.15066 -3.85516,8.15066c-0.93875,0 -2.89392,-4.0187 -3.49822,-7.18902c-0.35898,-1.88485 -0.83939,-3.19403 -1.29364,-3.52602c-0.84839,-0.62024 -10.82912,-0.70692 -12.32146,-0.10712M44.1049,18.65232c2.67518,1.99525 0.79524,5.38471 -2.98674,5.38471c-0.7707,0 -1.63054,-0.27639 -1.91061,-0.61411c-0.67544,-0.81323 -0.33608,-5.0474 0.44607,-5.57115c0.81364,-0.54501 3.2296,-0.11039 4.45128,0.80055M70.43561,18.0611c1.99484,0.83367 2.78394,3.0914 3.02067,8.64457c0.33159,7.78596 -1.20083,11.80507 -4.50116,11.80507c-3.77012,0 -4.96522,-2.91314 -4.7338,-11.54217c0.16968,-6.32468 0.68975,-7.90575 2.91805,-8.87476c1.63994,-0.71346 1.66611,-0.71387 3.29624,-0.03271M72.72319,54.00579c-4.6643,1.05609 -7.60565,3.67322 -9.44553,8.40497c-1.24826,3.20997 -1.57616,12.16364 -0.58713,16.02493c1.3889,5.4211 4.67084,9.16914 9.00069,10.27961c2.60895,0.6689 8.54644,0.66072 10.51715,-0.01472c0.82549,-0.28293 2.24629,-1.05445 3.15764,-1.71436c5.25837,-3.80937 4.06368,-11.73393 -1.88935,-12.53243c-2.35668,-0.31605 -3.37802,0.71346 -3.73822,3.76848c-0.34999,2.96752 -0.5536,3.32977 -2.05985,3.66054c-2.00261,0.43994 -3.87683,-0.65377 -4.98771,-2.91069c-0.88559,-1.79858 -0.97841,-2.51164 -0.97841,-7.50711c0,-4.99547 0.09281,-5.70853 0.97841,-7.50711c1.11292,-2.26101 2.98428,-3.35062 4.99588,-2.90864c1.41875,0.31155 1.99852,1.25561 1.99852,3.25413c0,3.81877 2.81747,5.44563 6.03439,3.48391c5.27882,-3.21856 3.04807,-11.71062 -3.54197,-13.48345c-2.56316,-0.68975 -7.09416,-0.83244 -9.45452,-0.29806M91.00218,54.39502c-1.11946,0.82222 -1.11619,2.11054 0.01676,6.34104c0.92853,3.46715 1.06795,4.80331 1.07817,10.32008c0.01022,5.63616 -0.11775,6.85334 -1.1579,11.00084c-1.05936,4.22395 -1.11333,4.76324 -0.57445,5.72407l0.5953,1.06059l11.65256,0.10835c9.59476,0.08913 11.79444,0.00491 12.45475,-0.47755c0.69752,-0.50903 0.81731,-1.16403 0.91708,-5.01469c0.18276,-7.05123 -1.08144,-8.03904 -5.67173,-4.43288c-2.91723,2.29208 -4.89203,3.15396 -6.8513,2.99082l-1.49316,-0.1247l-0.21383,-6.33736c-0.24613,-7.30473 0.1108,-11.75519 1.24948,-15.58091c1.68124,-5.64843 1.24744,-6.08877 -5.99841,-6.08877c-3.60166,0 -5.53067,0.16436 -6.00332,0.51108M117.67878,54.73234c-0.70488,0.70488 -0.79973,1.13623 -0.56096,2.55007c0.15782,0.93588 0.5446,2.43068 0.85902,3.32159c0.87537,2.48138 1.50011,9.42059 1.21432,13.48794c-0.14106,2.0071 -0.74699,5.66969 -1.34638,8.1388c-0.98413,4.05346 -1.03238,4.59275 -0.49513,5.5503l0.5953,1.06059l11.65256,0.10835c9.59476,0.08913 11.79444,0.00491 12.45475,-0.47755c0.69752,-0.50903 0.81731,-1.16403 0.91708,-5.01469c0.18276,-7.05123 -1.08144,-8.03904 -5.67173,-4.43288c-2.91723,2.29208 -4.89203,3.15396 -6.8513,2.99082l-1.49316,-0.1247l-0.12021,-2.73856c-0.11244,-2.5513 -0.04906,-2.78517 0.92853,-3.42585c0.78134,-0.5119 1.48989,-0.61697 2.77781,-0.41172c5.24284,0.8353 5.15125,0.84103 5.60345,-0.34917c0.23019,-0.60552 0.41867,-2.28472 0.41867,-3.73168c0,-2.11872 -0.16559,-2.79662 -0.84921,-3.48023c-0.52498,-0.52498 -1.11088,-0.74781 -1.53323,-0.58385c-0.37615,0.14596 -1.88935,0.36798 -3.36207,0.49309c-3.63233,0.30828 -4.14749,-0.19789 -3.98354,-3.91117l0.1198,-2.7128l2.10237,0.01513c2.15307,0.01554 2.59096,0.24286 7.89839,4.10129c2.93931,2.13712 4.08985,0.68116 4.09884,-5.1856c0.00532,-3.36371 -0.11612,-4.08698 -0.84144,-5.00856l-0.84716,-1.07735h-11.41869c-11.01106,0 -11.44854,0.03026 -12.26667,0.84839M154.03273,54.38276c-0.45711,0.36021 -0.72655,1.41589 -0.86433,3.38538c-0.12389,1.77487 -1.21841,6.43426 -2.88043,12.26586c-3.17154,11.12595 -3.68425,12.62729 -4.95622,14.5146c-2.58074,3.82899 -1.84683,4.49748 4.93823,4.49748c2.8097,0 5.46444,-0.19053 5.89947,-0.42317c0.84594,-0.45302 1.07612,-2.34809 0.43585,-3.59022c-0.19544,-0.37861 -0.47959,-1.37827 -0.6321,-2.22176l-0.2768,-1.53323h3.23573h3.23614l-0.17499,1.73766c-0.09649,0.95592 -0.34835,2.27123 -0.55973,2.92295c-0.50903,1.56839 -0.49391,1.71354 0.25758,2.46544c0.52457,0.52416 1.7209,0.64232 6.50867,0.64232c3.22592,0 6.15664,-0.11162 6.51235,-0.24818c0.90972,-0.34917 0.81895,-2.45031 -0.16518,-3.83267c-1.48744,-2.08888 -2.50183,-5.03064 -5.57197,-16.15781c-1.6747,-6.0716 -3.45366,-11.86722 -3.95247,-12.87915l-0.90726,-1.83988l-4.70927,-0.11448c-3.35716,-0.08136 -4.90021,0.03598 -5.37326,0.40886M177.26222,54.63176c-0.89295,0.98658 -0.85493,1.94046 0.23755,5.93013c0.79197,2.89188 0.91503,4.35233 0.91994,10.90312c0.00491,6.66527 -0.10344,7.9311 -0.91422,10.65658c-1.81984,6.11821 -1.26052,6.92448 4.80413,6.92448c6.01027,0 6.47228,-0.61738 4.89244,-6.54179c-0.76294,-2.8604 -1.59661,-10.26775 -1.10474,-9.81268c0.12143,0.11244 2.00996,3.60821 4.19615,7.76838c2.18659,4.16017 4.26361,7.79413 4.61564,8.07502c0.76539,0.61084 7.68865,0.70529 9.21288,0.12552c1.57085,-0.59694 1.64649,-1.72744 0.4477,-6.68203c-0.9412,-3.89155 -1.11333,-5.51268 -1.13827,-10.71791c-0.02576,-5.42396 0.09894,-6.61416 1.07694,-10.29678c1.32349,-4.98157 1.33453,-5.21626 0.28866,-6.26213c-0.70938,-0.70938 -1.36274,-0.81772 -4.93333,-0.81772c-2.26346,0 -4.47131,0.19053 -4.90634,0.42317c-1.03115,0.55196 -1.03565,2.8743 -0.01267,6.73191c0.70406,2.65474 1.60192,10.06945 1.16321,9.60825c-0.10671,-0.11244 -1.98789,-3.60821 -4.18061,-7.76838c-2.19273,-4.16017 -4.27015,-7.88572 -4.61687,-8.27945c-0.52621,-0.59735 -1.35088,-0.71551 -5.00079,-0.71551c-3.71492,0 -4.47213,0.11203 -5.0474,0.74781M219.19837,54.52054c-1.1211,0.78501 -1.13377,1.63463 -0.08095,5.43459c1.89712,6.84476 1.89017,15.18717 -0.01758,22.47105c-0.978,3.73495 -1.01725,5.12795 -0.16804,5.97756c0.55401,0.5536 2.23893,0.64232 12.20248,0.64232c10.67988,0 11.61168,-0.05683 12.23683,-0.74781c0.55155,-0.6092 0.67667,-1.66611 0.67667,-5.70976c0,-4.48726 -0.07564,-5.00243 -0.79115,-5.38512c-1.06672,-0.57077 -2.37835,-0.02944 -5.0335,2.07784c-2.63307,2.08969 -4.28324,2.8142 -6.40973,2.8142c-1.54795,0 -1.64362,-0.074 -1.90611,-1.47272c-0.1521,-0.80996 -0.17704,-4.81149 -0.05601,-8.89275c0.18767,-6.32591 0.37574,-7.96259 1.27483,-11.09978c1.2736,-4.44351 1.292,-4.88345 0.24695,-5.9285c-0.73227,-0.73227 -1.36274,-0.81772 -6.04175,-0.81772c-4.06695,0 -5.4256,0.14106 -6.13293,0.6366M246.07899,54.71475c-0.75271,0.75271 -0.82018,1.26461 -0.71551,5.41742l0.1153,4.58661l1.24294,0.12184c0.7936,0.07768 1.76138,-0.23019 2.676,-0.85084c1.20819,-0.81977 3.71451,-1.9286 4.3601,-1.9286c0.10099,0 0.10058,3.90995 -0.00123,8.68831c-0.15659,7.33008 -0.32259,9.15115 -1.06304,11.64725c-1.79654,6.05892 -1.28791,6.64932 5.72856,6.64932c5.12713,0 6.67753,-0.33322 7.05328,-1.51647c0.13002,-0.41009 -0.2445,-2.67477 -0.83244,-5.03227c-0.91258,-3.65809 -1.09984,-5.46894 -1.27606,-12.36112c-0.13165,-5.13285 -0.06133,-8.07502 0.19298,-8.07502c0.83817,0 3.23941,0.99599 4.67697,1.94005c0.92771,0.6092 1.93882,0.93261 2.6576,0.85043l1.16035,-0.13288l0.11816,-4.70191c0.16682,-6.61906 1.23272,-6.13293 -13.45156,-6.13293c-11.32915,0 -11.84555,0.03394 -12.64242,0.83081M274.20133,54.42732c-0.96287,0.7658 -0.91299,2.69522 0.17213,6.6485c0.74576,2.71811 0.89214,4.37564 0.91749,10.38918c0.02617,6.27848 -0.08259,7.5341 -0.88764,10.24771c-0.50454,1.70087 -0.91462,3.72473 -0.91135,4.49748c0.01186,2.64861 -0.04416,2.63144 8.66787,2.63144c7.75693,0 7.91843,-0.01758 9.95497,-1.09248c5.49142,-2.89842 8.40129,-9.56819 7.80967,-17.90243c-0.52621,-7.41103 -3.08445,-12.15424 -7.83747,-14.53054c-2.41515,-1.20778 -2.55948,-1.2274 -9.81064,-1.34188c-5.80747,-0.09159 -7.51038,0.00368 -8.07502,0.45302M54.35507,55.72301c-0.68566,1.73317 -1.54877,2.57011 -2.97324,2.88289l-1.23354,0.27108l1.70046,0.7613c1.24621,0.5581 1.86891,1.16526 2.33256,2.27491l0.63251,1.5132l0.7429,-1.65957c0.56873,-1.27033 1.09166,-1.77528 2.22789,-2.1498l1.48417,-0.49023l-1.72867,-0.88355c-1.26052,-0.64478 -1.85991,-1.27115 -2.2144,-2.31498l-0.48614,-1.43102l-0.4845,1.22577M287.15734,61.30643c3.34204,1.5226 4.5997,12.56392 2.02223,17.75401c-0.9273,1.86727 -2.58401,3.17645 -3.55015,2.80561c-0.62883,-0.24123 -0.69547,-1.23967 -0.69547,-10.41085c0,-7.7324 0.12143,-10.19252 0.51108,-10.34993c0.2813,-0.11325 0.54828,-0.22079 0.59408,-0.23837c0.04579,-0.01758 0.54869,0.1799 1.11824,0.43953M159.25186,69.55521l0.87128,3.13638h-2.22257c-1.91838,0 -2.19518,-0.09772 -2.02591,-0.71551c0.10794,-0.39373 0.42072,-1.72744 0.69507,-2.96425c0.27394,-1.23681 0.58304,-2.39634 0.68648,-2.57706c0.489,-0.85411 1.20042,0.25799 1.99565,3.12043M209.60647,80.69098c-4.46682,2.42373 -1.89671,9.53589 3.10694,8.59714c4.33884,-0.81404 5.27514,-6.70206 1.36069,-8.55952c-1.74175,-0.82631 -2.9945,-0.83694 -4.46763,-0.03762M81.35059,106.06903c-1.26175,1.60356 -0.95265,3.6311 0.75231,4.94028c0.66931,0.51394 3.39028,0.71306 3.82327,0.27966c0.52988,-0.52948 -0.2216,-1.41016 -0.99394,-1.16485c-1.02624,0.32586 -2.79375,-0.8398 -2.79375,-1.84192c0,-1.21432 1.20246,-2.16043 2.50346,-1.96949c0.66563,0.09772 1.22536,-0.0413 1.33698,-0.332c0.29642,-0.77316 -0.14883,-0.98904 -2.03899,-0.98904c-1.39504,0 -1.91102,0.21465 -2.58932,1.07735M91.3906,105.31509c-0.10957,0.17745 -0.20361,1.64935 -0.20893,3.27089l-0.0094,2.94749h2.02509c1.5271,0 2.02468,-0.15087 2.02468,-0.61329c0,-0.40886 -0.40886,-0.61329 -1.22659,-0.61329h-1.22659v-2.6576c0,-2.04145 -0.13656,-2.6576 -0.58917,-2.6576c-0.32423,0 -0.67912,0.14555 -0.7891,0.32341M100.53725,108.26258v3.27089h1.83988c1.36274,0 1.83988,-0.15905 1.83988,-0.61329c0,-0.41213 -0.41213,-0.61329 -1.25643,-0.61329c-0.97595,0 -1.22659,-0.15986 -1.1211,-0.71551c0.083,-0.43626 0.58304,-0.76702 1.28096,-0.84716c1.42366,-0.16395 1.23354,-1.0471 -0.26372,-1.22413c-1.54591,-0.18317 -1.43102,-1.30182 0.1337,-1.30182c0.81772,0 1.22659,-0.20443 1.22659,-0.61329c0,-0.45425 -0.47714,-0.61329 -1.83988,-0.61329h-1.83988v3.27089M110.08213,108.2728c-1.20778,3.05338 -1.23967,3.26067 -0.49799,3.26067c0.43503,0 0.89745,-0.27598 1.02665,-0.61329c0.1431,-0.37288 0.76212,-0.61329 1.57902,-0.61329c0.81691,0 1.43592,0.24041 1.57902,0.61329c0.22733,0.59285 1.48744,0.88682 1.48744,0.34753c0,-0.14637 -0.50617,-1.61623 -1.12437,-3.2664c-1.56063,-4.16548 -2.31457,-4.11519 -4.04978,0.27148M120.33229,108.15464c0.02903,2.62939 0.15169,3.18544 0.72696,3.29624c0.55973,0.10794 0.71592,-0.24246 0.81772,-1.83415l0.12552,-1.96744l1.22659,1.94128c0.69997,1.10802 1.53364,1.94169 1.94209,1.94209c0.62188,0.00082 0.71551,-0.42726 0.71551,-3.27008c0,-2.57992 -0.1247,-3.27089 -0.59081,-3.27089c-0.41499,0 -0.62801,0.57854 -0.71551,1.94209l-0.1247,1.94209l-1.22372,-1.94209c-0.82427,-1.30836 -1.50257,-1.94209 -2.07906,-1.94209c-0.79769,0 -0.85329,0.21465 -0.82059,3.16296M131.61075,108.26258c0,2.63471 0.11939,3.27089 0.61329,3.27089c0.49391,0 0.61329,-0.63619 0.61329,-3.27089c0,-2.63471 -0.11939,-3.27089 -0.61329,-3.27089c-0.49391,0 -0.61329,0.63619 -0.61329,3.27089M138.5614,108.26258c0,2.57992 0.1247,3.27089 0.59081,3.27089c0.41499,0 0.62801,-0.57854 0.71551,-1.94209l0.1247,-1.94209l1.34843,1.94209c0.82835,1.19306 1.6563,1.94209 2.14652,1.94209c0.72491,0 0.7981,-0.29929 0.7981,-3.27089c0,-2.96752 -0.0736,-3.27089 -0.79524,-3.27089c-0.65868,0 -0.81691,0.33363 -0.91994,1.94209l-0.1247,1.94209l-1.22659,-1.94128c-0.69997,-1.10802 -1.53364,-1.94169 -1.94209,-1.94209c-0.62188,-0.00082 -0.71551,0.42726 -0.71551,3.27008M150.00504,106.32048c-0.93752,1.53773 -0.9919,2.06884 -0.33772,3.29788c1.49357,2.80397 5.16801,2.40452 5.88884,-0.64028c0.25717,-1.08716 0.21056,-1.12437 -1.41384,-1.12437c-1.22045,0 -1.6796,0.16763 -1.6796,0.61329c0,0.36062 0.37329,0.61329 0.90522,0.61329c0.83081,0 0.85125,0.05397 0.25022,0.65541c-1.48703,1.48703 -3.43485,-0.73227 -2.37712,-2.70871c0.39455,-0.73718 0.73186,-0.8627 1.83783,-0.6828c1.56022,0.25309 2.0255,-0.01922 1.37459,-0.80382c-0.25063,-0.30174 -1.17139,-0.54869 -2.04676,-0.54869c-1.3566,0 -1.71109,0.19584 -2.40165,1.3288M168.27217,105.26439c-0.15005,0.14964 -0.27271,0.7891 -0.27271,1.42039c0,0.8672 0.30624,1.30631 1.25275,1.79572c1.43102,0.74004 1.39136,1.65753 -0.06746,1.54877c-1.6334,-0.12184 -2.17923,0.18603 -1.59006,0.89582c0.60552,0.72982 3.31137,0.80914 4.00276,0.11775c0.9641,-0.9641 0.56014,-2.35791 -0.94038,-3.2435c-1.71231,-1.0103 -1.85419,-1.68942 -0.31441,-1.50829c0.80382,0.09486 1.15626,-0.0691 1.25684,-0.58385c0.11366,-0.58304 -0.15578,-0.71551 -1.45759,-0.71551c-0.87864,0 -1.72008,0.12266 -1.86973,0.27271M177.40328,108.26258v3.27089h1.83988c1.36274,0 1.83988,-0.15905 1.83988,-0.61329c0,-0.38147 -0.38597,-0.61329 -1.02215,-0.61329c-0.76007,0 -1.02215,-0.21629 -1.02215,-0.84348c0,-0.63742 0.22201,-0.812 0.90972,-0.71551c0.60552,0.08504 0.95755,-0.11121 1.05241,-0.58753c0.1059,-0.53275 -0.12634,-0.71551 -0.91013,-0.71551c-0.66236,0 -1.052,-0.22692 -1.052,-0.61329c0,-0.38147 0.38597,-0.61329 1.02215,-0.61329c0.63619,0 1.02215,-0.23182 1.02215,-0.61329c0,-0.45425 -0.47714,-0.61329 -1.83988,-0.61329h-1.83988v3.27089M186.47552,108.26258c-0.0229,2.9712 0.04702,3.27089 0.76662,3.27089c0.6182,0 0.79401,-0.2907 0.8026,-1.3288l0.01104,-1.3288l1.11333,1.33248c0.61248,0.73268 1.43551,1.33085 1.82884,1.3288c0.98168,-0.00491 0.8999,-0.37983 -0.37166,-1.707c-0.94161,-0.9829 -0.9964,-1.16934 -0.40886,-1.39463c0.79401,-0.30501 0.91585,-2.22503 0.18767,-2.95321c-0.26985,-0.26985 -1.25889,-0.49063 -2.19763,-0.49063h-1.70659l-0.02535,3.27089M196.27921,105.30446c0.07482,0.17172 0.67135,1.64362 1.32512,3.27089c1.29323,3.21774 2.19314,3.77543 2.96016,1.83375c0.24409,-0.6182 0.83898,-2.10359 1.32185,-3.29992l0.87742,-2.17596l-0.89336,0.13165c-0.64069,0.09404 -1.05691,0.62311 -1.47068,1.86891c-0.31728,0.95551 -0.72082,1.73766 -0.89623,1.73766c-0.17581,0 -0.63578,-0.82795 -1.02215,-1.83988c-0.50903,-1.3333 -0.92771,-1.83988 -1.52056,-1.83988c-0.44975,0 -0.7568,0.14065 -0.68157,0.31278M207.65906,108.26258c0,2.99818 0.06828,3.27089 0.81772,3.27089c0.74944,0 0.81772,-0.27271 0.81772,-3.27089c0,-2.99818 -0.06828,-3.27089 -0.81772,-3.27089c-0.74944,0 -0.81772,0.27271 -0.81772,3.27089M215.65844,105.63687c-1.70577,1.70577 -1.71926,3.48882 -0.03843,5.06743c0.7012,0.65909 1.3427,0.85125 2.52063,0.75435c2.06189,-0.16927 2.25283,-1.35619 0.21792,-1.35619c-1.32962,0 -2.52227,-0.9735 -2.52227,-2.05903c0,-0.895 1.54795,-1.89467 2.71934,-1.75647c0.83694,0.09894 1.18774,-0.05888 1.28955,-0.57977c0.11653,-0.59612 -0.16722,-0.71551 -1.70087,-0.71551c-1.13132,0 -2.08928,0.24859 -2.48588,0.64518M225.24012,108.26258v3.27089h1.83988c1.36274,0 1.83988,-0.15905 1.83988,-0.61329c0,-0.38147 -0.38597,-0.61329 -1.02215,-0.61329c-0.74944,0 -1.02215,-0.21792 -1.02215,-0.81772c0,-0.5998 0.27271,-0.81772 1.02215,-0.81772c0.63619,0 1.02215,-0.23182 1.02215,-0.61329c0,-0.38147 -0.38597,-0.61329 -1.02215,-0.61329c-0.63619,0 -1.02215,-0.23182 -1.02215,-0.61329c0,-0.38147 0.38597,-0.61329 1.02215,-0.61329c0.63619,0 1.02215,-0.23182 1.02215,-0.61329c0,-0.45425 -0.47714,-0.61329 -1.83988,-0.61329h-1.83988v3.27089M189.36821,106.46277c0.39823,0.39782 -0.14842,1.39095 -0.76498,1.39095c-0.31319,0 -0.56954,-0.36798 -0.56954,-0.81772c0,-0.76989 0.79646,-1.1117 1.33453,-0.57322M112.79697,108.56922c0.00327,0.2813 -0.26985,0.51108 -0.60716,0.51108c-0.66604,0 -0.75803,-0.37411 -0.35203,-1.43183c0.20852,-0.54338 0.33118,-0.57077 0.60716,-0.13574c0.19012,0.3001 0.34835,0.77561 0.35203,1.0565"/></g></svg>